<?xml version="1.0" standalone="no"?>
<!DOCTYPE svg PUBLIC "-//W3C//DTD SVG 20010904//EN"
 "http://www.w3.org/TR/2001/REC-SVG-20010904/DTD/svg10.dtd">
<svg version="1.0" xmlns="http://www.w3.org/2000/svg"
 width="300.000000pt" height="300.000000pt" viewBox="0 0 300.000000 300.000000"
 preserveAspectRatio="xMidYMid meet">
<metadata>
Created by potrace 1.11, written by Peter Selinger 2001-2013
</metadata>
<g transform="translate(0.000000,300.000000) scale(0.100000,-0.100000)"
fill="#000000" stroke="none">
<path d="M2042 1785 c5 -16 16 -42 24 -57 8 -16 11 -28 6 -28 -6 0 -13 -42
-17 -92 -4 -51 -9 -101 -10 -110 -2 -9 -7 -57 -10 -105 -4 -48 -11 -110 -15
-136 -7 -47 -6 -49 36 -93 l44 -45 45 46 c25 25 44 49 41 53 -2 4 -7 43 -11
87 -3 44 -8 96 -10 115 -9 83 -15 139 -21 205 -3 38 -8 73 -10 76 -2 4 2 22
10 40 31 77 33 74 -43 74 l-68 0 9 -30z m75 -81 c-3 -3 -12 -4 -19 -1 -8 3 -5
6 6 6 11 1 17 -2 13 -5z"/>
<path d="M866 1557 c1 -111 2 -216 3 -234 1 -30 3 -32 49 -39 26 -3 55 -8 64
-10 28 -5 92 17 116 39 50 46 69 125 51 208 -13 56 -37 87 -81 100 -41 13 -86
1 -123 -32 -21 -18 -21 -18 -18 76 l2 95 -32 0 -32 0 1 -203z m210 -13 c23
-35 23 -141 0 -176 -26 -40 -110 -58 -139 -29 -8 8 -12 91 -8 159 1 8 15 27
32 43 41 38 91 40 115 3z"/>
<path d="M130 1722 c-6 -2 -10 -15 -10 -28 0 -23 2 -24 85 -24 l85 0 -2 -149
c-3 -130 -5 -152 -22 -170 -23 -25 -71 -28 -121 -7 l-35 15 0 -30 c0 -36 32
-52 104 -51 57 0 93 22 118 73 15 28 18 62 18 202 0 152 -2 167 -17 168 -65 3
-195 3 -203 1z"/>
<path d="M580 1622 c-36 -11 -89 -56 -101 -85 -18 -44 -16 -145 4 -184 69
-133 272 -92 293 59 14 102 -20 182 -86 203 -30 10 -89 14 -110 7z m112 -79
c19 -21 23 -35 23 -94 0 -61 -3 -72 -26 -95 -39 -38 -105 -37 -136 3 -30 37
-35 111 -12 167 24 55 107 66 151 19z"/>
<path d="M1314 1609 c-69 -34 -101 -116 -86 -217 7 -52 67 -109 122 -117 151
-22 245 148 162 292 -30 54 -132 75 -198 42z m138 -66 c19 -21 23 -35 23 -94
0 -60 -3 -72 -25 -93 -44 -44 -113 -39 -145 11 -20 29 -23 110 -6 151 26 61
106 75 153 25z"/>
<path d="M1750 1619 c-14 -6 -35 -20 -47 -31 l-23 -21 0 26 c0 22 -5 27 -25
27 -28 0 -27 5 -27 -115 0 -47 1 -117 1 -156 l1 -70 28 3 27 3 2 113 c1 95 4
117 20 134 23 27 71 47 95 40 30 -8 38 -43 38 -173 l0 -119 30 0 30 0 0 131
c0 151 -12 191 -62 208 -37 13 -55 13 -88 0z"/>
<path d="M2355 1617 c-78 -26 -117 -84 -117 -173 0 -69 27 -122 76 -147 42
-22 105 -28 154 -15 27 7 32 13 32 39 0 26 -2 29 -19 19 -11 -5 -42 -10 -70
-10 -38 0 -56 6 -78 24 -25 22 -28 30 -28 91 0 63 2 68 33 96 26 23 42 29 78
29 25 0 54 -5 65 -10 17 -10 19 -7 19 19 0 23 -5 32 -22 36 -45 11 -93 12
-123 2z"/>
<path d="M2701 1616 c-44 -16 -71 -50 -71 -91 0 -43 39 -76 115 -100 82 -26
108 -76 46 -92 -29 -8 -91 -7 -137 2 -28 5 -31 3 -30 -17 1 -31 18 -40 86 -43
108 -6 174 32 174 102 0 40 -34 78 -82 90 -62 15 -112 42 -112 61 0 33 27 46
92 44 32 -1 64 -4 69 -7 5 -4 9 -3 10 2 0 4 2 16 4 25 2 10 -1 21 -7 24 -19
12 -122 12 -157 0z"/>
</g>
</svg>
